<?xml version="1.0" encoding="UTF-8"?><svg id="a" xmlns="http://www.w3.org/2000/svg" width="1000" height="1000" viewBox="0 0 1000 1000"><path d="m341.24,484.02l.74-.43s.08-.05.12-.08c-.3.13-.6.28-.89.45l.03.05Z" fill="#021140" fill-rule="evenodd"/><path d="m350.74,477.99l.74-.43s.08-.05.12-.08c-.3.13-.6.28-.89.45l.03.05Z" fill="#021140" fill-rule="evenodd"/><path d="m359.23,473.21l.74-.43s.08-.05.11-.07c-.3.13-.59.28-.88.45l.03.05Z" fill="#021140" fill-rule="evenodd"/><path d="m739.88,710.62c-.04-10.92-.35-10.89-.05-21.79.22-7.98.11-10.14-5.34-10.32-4.05-.13-4.02.42-11.55.25-.3,0-3.13-.07-3.66-.44-1.2-.83-.88-1.21-.89-29.24-.1-160.29-.2-320.59-.3-480.88-.03-37.17.77-38.72-1.52-42.34-1.22-1.93-3.44-1.96-10.29-1.95-123.11.04-246.21.07-369.32.11-15.39.02-15.37.27-30.77.13-7.83-.07-8.66-.82-12.8,3.05-7.55,7.05-6.42,8.08-6.51,15.36-.03,2.9-.64,375.36-.23,516.79.03,11.37-.06,16.54-.08,16.6-.69,2.22-1.17,2-3.48,2.15-3.75.25-10.3-2.32-12.78,4.34-3.08,8.31-2.83,8.38-6.05,16.81-3.53,9.26-4.39,9.16-4.42,19.08-.04,12.83.37,12.8.21,25.65-.1,7.89-.32,10.41,5.11,10.49,3.49.05,3.48-.21,43.6-.2,74.8,0,149.61.02,224.41.02q23.57.06,25.61.29c3.19.38,2.59,4.2,2.65,4.78.28,3.2.31,3.17.55,6.36,2.02,21.72,4.52,36.83-.39,48.87-1.35,3.3-5.15,11.99-5.56,12.61-1.82,2.75-3.99,2.22-5.68,5.51-2.06,3.99,2.63,7.01,7.07,10.2.79.57.87.42,10.12,6.64,1.72,1.16,1.87.91,22,13.8,5.86,3.75,8.7,5.16,12.72,7.85,1.43.95,9.26,5.78,12.98,4.8,2.83-.74,3.1-3.36,3.14-3.75.04-.44-.08-.88-.03-1.32.4-3.89,4.34-4.9-.79-12.66-6.74-10.21-8.21-10.47-10.87-12.33-3.62-2.53-4.26-1.36-6.76-3.29-.34-.26-9.53-10.56-10.55-12.64-1.28-2.58-1.04-2.65-2.27-5.27-.01-.03-1.22-2.07-.39-2.82,1.4-1.28,1.55.09,10.4,4.49,5.91,2.94,6.03,2.65,11.9,5.72,1.77.92,10.36,4.13,19.26,8.97,6.96,3.79,11.62,4.95,12.68,5.22,3.29.82,4.15-.22,5.13-.98,1.05-.81,2.32-3.26,2.17-5.16-.16-1.99-.74-2.17.46-3.77,1.37-1.83,3.8-4.05-1.74-10.07-8.28-8.99-11.58-10.41-15.78-13.05-.02-.02-1.59-1.75-4.44-3.88-.68-.51-3.98-4.65-7.17-10.56-.39-.71-2.53-6.27-3.02-8.71-1.38-6.88-.19-14.04.93-26.95.66-7.65,1.18-8.58,4.18-8.71,1-.04,50.39-.31,88.47-.02,7.87.06,10.8.64,10.81-6.63.02-6.81-1.88-10.52,5.86-10.57,7.87-.05,11.2.57,12.59-1.16,1.35-1.67.59-2.12.5-25.46ZM300.57,131.88c1.14-1.04,1.37-.85,26.91-.77,15.46.05,15.44-.11,64.12-.11q198.2.01,215.43.05c59.18.27,78.97-.27,94.89-.27,9.34,0,11.14,0,11.32,4.94.38,10.39-.29,11-.97,11.63-1.47,1.35-8.32.97-9.05.93-5.64-.32-16.62.59-19.25.56-51.94-.62-51.92-.11-103.86-.15-30.35,0-60.7,0-91.05,0q-126.31-.21-139.78-.17c-22.45.13-22.43-.17-44.88-.22-4.49-.01-4.48-1.21-4.6-4.9-.02-6.11-.26-10.58.76-11.52Zm412.42,159c-.16,96.28.39,385.57-.06,387.08-.6,2-4.9,1.64-8.44,1.67-.27,0-2.59.02-3.27-.68-.71-.73-.66-4.27-.65-4.64.47-34.01.13-125.32.24-144.9q.09-16,.19-200.05c0-4.72-.09-53.48-.15-58.99q-.35-30.78-.2-61.55c.09-34.34-.24-43.62-.03-46.16.55-6.57-.83-8.84,3.86-8.84,5.92,0,8.4-.56,8.72,2.46.06.54-.13,73.21-.18,80.75-.18,26.94,0,26.92-.04,53.86Zm-253.45,384.71c.23.46.31.4,3.37,3.05,1.6,1.38,7.48,8.11,8.37,9.68,1.08,1.89,1.76,2.57-.24,3.42-1.33.56-1.11-.36-3.56-3.51-3.39-4.35-8.35-10.58-11.71-9.93-.12.02-1.24.24-.95,1.17.41,1.3,2.36,1.67,8.21,8.02.28.31,3.29,3.56,2.65,4.54-2.19,3.39-6.77-9.66-20.2-10.47-8.03-.48-8.01-.78-13.1-2.81-5.72-2.28-21.78-1.16-48.49-1.95-28.1-.83-35.4.35-43.64-3.73-9.43-4.67-7.67-18.11-7.2-46.21.12-.63-.06-.62.07-1.23.03-.13.18-.93.49-1.54.42-.85.8-1.62,11.79-.77,10.65.83,10.65.8,11.57.89,3.56.37,2.35,3.85,2.17,6.44-.57,8.35-.24,8.36-.96,16.69-.54,6.24,2.21,7.02,14.13,9.23,21.27,3.96,21.05,4.88,32.22,6.83,15.94,2.79,26.04,6.1,40.96,4.88,10.04-.82,11.42-2.41,19.22,3.39,2.29,1.7,9.98,10.29,10.72,12.84.65,2.25-1.1,2.63-2.52.75-.36-.48-.62-1.02-.98-1.5-.41-.53-9-10.33-11.1-10.26-2.27.08-1.38,1.88-1.29,2.05Zm-140.81-427.67c.96-.27,19.86,0,21.59.03,13.23.19,27.74.39,165.41.28,28.06-.03,149.01.08,170.58-.32,6.62-.12,9.42-1.27,9.03,3.23-.49,5.75-.15,5.73-.37,11.52-.09,2.37-.04,2.84-2.34,3.38-.5.12-25.04-.04-64.05-.07-83.78.02-167.56.05-251.34.07-47.32,0-47.7.77-48.98-.58-1.13-1.19-.71-7.07-.6-10.46.07-2.4-.91-6.54,1.08-7.08Zm361.89-10.9c0,.32.06,3.68,0,3.96-.4,1.86-2.76,1.96-3.05,1.97-.26.01-74.33-.03-80.8-.04-27.79,0-55.57-.01-83.35-.02-21.13.04-190.88.1-192.34.07-4.66-.1-3.44-3.43-3.51-12.35-.04-4.7.15-4.68.01-28.21-.08-14.28-.96-14.96.72-15.66,1.89-.78,5.27.14,48.92.05,84.18-.18,291.79.17,307.75-.17.32,0,3.45-.07,3.96.06,2.18.56,1.63,1.42,1.85,10.59.08,3.18-.78,3.16-.18,39.75Zm5.95,434.73c-.21,1.11-.71,1.19-14.11.64-5.46-.22-9.72.4-7.39-4.33.87-1.76,2.71-5.26,4.78-5.41,1.47-.1,4.21,1.33,11.71,4.93,1.4.64,5.36,2.22,5,4.18Zm-144.17-183.82c.07.62-.37,1.19-.99,1.26l-3.94.47c-.62.07-1.19-.37-1.26-.99l-2.53-21.29c-.07-.62.37-1.19.99-1.26l3.94-.47c.62-.07,1.19.37,1.26.99l2.53,21.29Zm-33.22-78.22c1.19,0,2.16.97,2.16,2.16v15.53c0,1.19-.97,2.16-2.16,2.16h-5.92c-1.19,0-2.16-.97-2.16-2.16v-15.53c0-1.19.97-2.16,2.16-2.16h5.92Zm-5.51-5.25v-122.83c0-.59.48-1.07,1.07-1.07h2.94c.59,0,1.07.48,1.07,1.07v122.83c0,.59-.48,1.08-1.07,1.08h-2.94c-.59,0-1.07-.48-1.07-1.08Zm25.56,64.28c.35-.06.71.03.99.24.28.21.47.53.51.88.47,3.76,1.81,14.36,2.29,18.18.04.36-.06.72-.29,1-.23.28-.57.45-.93.46-6.93.37-37.57,2-44.14,2.34-.7.04-1.3-.48-1.36-1.18-.28-2.97-.99-10.45-1.26-13.39-.06-.68.41-1.29,1.08-1.41,6.38-1.06,36.4-6.02,43.11-7.13Zm-71.27,41.31c-3.62,10.17-5.93,39.54-9.82,55.29-1.13,4.57-2.01,9.22-3.34,13.74-.99,3.38-2.31,7.67-5.76,9.27-1.59.73-3.38.94-5.13.89-6.3-.19-12.02-3.74-15.72-8.74-3.14-4.25-4.39-9.5-6.86-14.12-.11-.2-1.3-2.43.68-2.72.93-.13,10.11,3.77,13.98,2.36,3.85-1.41,11.07-22.84,12.54-26.56.86-2.18,6.89-17.39,8.73-27.94,0-2.81.79-2.96-1.17-8.01-1.45-3.74-1.75-3.76-1.35-4.63.32-.7,1.67-1.31,9.69-1.25,5.65.04,5.9-.53,6.97.58,1.21,1.26.36,1.45-.24,3.08-.26.7-1.68,4.51-3.19,8.76Zm-.42,110.67c-1.22,2.37-7.74,14.42-9.64,18.92-1.68,3.97-2,3.78-3.91,7.65-5.05,10.19-6.55,14.53-6.85,15.11-1.14,2.23-4.69,2.45-4.88.44-.14-1.48,5.78-13.48,7.73-16.92,2.17-3.84,4.53-9.69,6.36-12.86,3.76-6.53,3.44-6.68,8.57-16.15,2.28-3.58,2.18-3.62,2.39-3.93,1.17-1.74,3.44-1.49,3.67-.29.26,1.38-1.13,3.57-3.44,8.03Zm-58.79-124.04c-.62.07-1.18-.39-1.25-1.01l-.42-3.95c-.07-.62.39-1.18,1.01-1.25l29.15-3.12c.62-.07,1.18.39,1.25,1.01l.42,3.94c.07.62-.39,1.18-1.01,1.25l-29.15,3.12Zm35.98-2.81c-.7.03-1.3-.5-1.35-1.19-.14-1.72-.38-4.79-.52-6.48-.05-.68.43-1.29,1.11-1.39,6.64-.96,38.67-5.58,45.59-6.58.34-.05.69.04.96.26.27.21.44.53.47.88.23,2.62.74,8.44.97,11.09.03.36-.08.71-.32.98-.24.27-.57.43-.93.45-7.06.3-39.21,1.69-45.98,1.98Zm6.93-14.29c0-.94.79-1.71,1.77-1.71s1.77.77,1.77,1.71-.79,1.71-1.77,1.71-1.77-.77-1.77-1.71Zm7.08-1.16c0-.94.79-1.71,1.77-1.71s1.77.77,1.77,1.71-.79,1.71-1.77,1.71-1.77-.77-1.77-1.71Zm7.27-1.11c0-.95.79-1.71,1.77-1.71s1.77.77,1.77,1.71-.79,1.71-1.77,1.71-1.77-.77-1.77-1.71Zm6.69-1.23c0-.94.79-1.71,1.77-1.71s1.77.77,1.77,1.71-.79,1.71-1.77,1.71-1.77-.77-1.77-1.71Zm-71.01,21.14c-.75-.39-.48-.6-1.02-2.49-.03-.28-.37-3.08-.04-3.57.86-1.25,2.07-.27,2.21-.16.42.34.7,2.39.72,2.6.04.32.66,4.93-1.88,3.62Zm-9.6,14.71c.21,2.49-4.09,2.72-4.37,3.09-.03.04-.11,1.67-.09,1.72.1.2,2.25,1.2,3.03,1.94,1.44,1.34,1.72,9.45-6.06,10.97-7.21,1.41-11.88-2.02-15.3-2.66-.27-.05-3.16-.6-2.97,1.61.21,2.47,5.74,3.49,7.05,4.9,1.29,1.39,1.03,8.61.72,9.04-1.1,1.51-1.54.74-9.98.92-11.44.24-13.93,3.89-14.42-.71-.09-.85-.1-1.72-.19-2.57-.56-7.13-.74-7.12-.71-7.74.16-3.54,6.74-4.78,9.7-9.28,3.77-5.74,4.05-5.59,4.16-6.18.38-2.04-.27-1.96-2.06-3.01-.39-.23-5.98-2.05-5.74-8.47.15-4.15,3.84-4.63,5.51-4.41,2.13.28,2.01.64,3.89,1.67,3.98,2.19,5.1-3.59,5.71-5.18,1.29-3.39,4.87-2.82,10.33-6.82,1.2-.88,3.54-4.2,3.82-4.88,1.01-2.51.63-3.05,1.89-3.14,1.59-.11,1.3.57,1.49,2.14.1.85.14,1.71.27,2.55,1.14,7.62,3.04,6.8,7,13.04,2.09,3.29,1.21,3.77-.89,5.34-3.46,2.58-1.88,4.87-1.77,6.12Zm-37.11-18.58l.07.12-.74.43c-4.2,2.42-9.49.93-11.81-3.32l-.45-.82h0s-.07-.13-.07-.13c-2.54-4.67-.87-10.61,3.74-13.27l.48.88c2.3,4.21.82,9.56-3.28,12.02,4.44-1.99,9.69-.28,12.07,4.1Zm9.19-5.72l.07.12-.74.43c-4.2,2.42-9.49.93-11.81-3.32l-.45-.82h0s-.07-.13-.07-.13c-2.54-4.67-.87-10.61,3.73-13.27l.48.88c2.3,4.21.82,9.56-3.29,12.02,4.44-1.99,9.69-.28,12.07,4.1Zm9.49-6.03l.07.12-.74.43c-4.2,2.42-9.49.93-11.81-3.32l-.48-.88h0s-.04-.08-.04-.08c-2.55-4.67-.87-10.61,3.73-13.27l.48.88c2.3,4.21.82,9.56-3.28,12.02,4.44-1.99,9.69-.28,12.07,4.1Zm8.49-4.78l.07.12-.74.43c-4.2,2.42-9.49.93-11.81-3.32l-.48-.87s0,0,0,0l-.04-.08c-2.54-4.67-.87-10.61,3.73-13.27l.48.88c2.3,4.21.82,9.56-3.29,12.02,4.44-1.99,9.69-.28,12.07,4.1Zm-6.39-7.09l.05-.25c1.06-5.18,6.11-8.48,11.28-7.36l-.22,1.08c-.96,4.72-5.57,7.73-10.28,6.71l-.83-.18Zm-38.7,13.57l.48.88c2.3,4.21.82,9.56-3.29,12.02,4.44-1.99,9.69-.28,12.07,4.1l.07.12-.74.43c-4.2,2.42-9.49.93-11.81-3.32l-.45-.82h0s-.07-.13-.07-.13c-2.54-4.67-.87-10.61,3.73-13.27Zm5.52,73.02c5.39-8.44,10.19-10.1,32.09-9.89,8.43.08,9.6-.8,13.86,1.43,17.51,9.15,19.19,9.11,23.2,12.5,6.82,5.77,8.26,16.28,11.41,20.54,6.14,8.33,7.07,7.65,13.42,12.16,10.88,7.72,11.29,7.05,16.56,10.37,3.73,2.35,9.17,4.36,9.47,6.81.24,1.95-5.83,11.42-7.87,15.61-4.4,9.03-4.33,9.05-8.99,17.96-9.04,17.3-8.04,18.09-9.58,18.79-2.39,1.08-12.7-3.47-13.8-4.09-7.41-4.13-7.45-4.02-8.08-4.4-11.96-7.23-12.08-7.04-21.75-14.25-6.33-4.73-15.36-10.8-16.12-14.34-.2-.93,1.35-10.22,1.6-14.09,2.31-35.54.93-36.84.89-37.2-1.1-9.45-8.35-16.81-17.06-17.44-12.07-.87-16.55,7.15-17.22,8.08-4.86,6.74-3.76,14.86-4.71,15.67-.18.16-1.81.04-1.94-.13-1.14-1.47.29-16.15,4.62-24.11Zm.74,35.88c.78-14.58,2.84-20.11,2.98-20.53,3.8-11.89,19.09-13.1,24.64-5.14,3.21,4.62,4.19,7.07,2.61,29.58-.94,13.35-.18,19.71-.94,21.99-.35,1.04-.86,2.21-8.2,1.3-9.17-1.13-13.75-.8-19.19-1.58-4.05-.58-3.53-2.64-1.88-25.61Zm132.95,75.38c-8.95-7.35-20.19-3.38-22.01-3.95-1.47-.46-1.67-.63-1.47-2.15.11-.83,8.3-18.05,9.54-20.25,5.13-9.12,7.91-16.37,10.81-20.94,3.3-5.2,2.75-6.92,6.71-7.07,11.49-.43,16.28-7.86,19.13-10.81,4.13-4.27,4.21-4.16,8.15-8.57q4.78-5.44,9.75-10.72c4.08-4.32,4.65-5.65,6.6-5.06,1.23.37,8.54,6.8,9.25,7.43,4.49,3.95,7.26,5.38,10.17,7.77,15.2,12.44,15.61,12.8,16.93,13.96,1.76,1.54,2.06,2.6-2.52,8.51-2.94,3.8-4.4,5.75-5.99,6.76-1.84,1.17-3.83.15-18.85-1.2-18.2-1.64-20.09-2.89-25.69-3-2.37-.05-3.46,2.19-1.55,3.78.66.55.96.8,10.58,1.84,9.15.99,26.41,3.15,28.13,3.29,1.23.1,13.96,1.19,15.34,1.41,2.27.35,3.11,1.25,2.85,3.42-.68,5.73-1.18,5.67-2.67,26.92-1.54,21.9-1.4,22.89-3.9,23.34-.29.05-8.31-.22-9.03-.25-2.99-.1-27.95-.44-30.76-.51-4.99-.12-25.44-1.7-25.7-1.73-4.59-.48-3.1-3.44-13.79-12.21Zm80.41-68.79c-1.04-.7-.65-1.19-12.25-9.73-.88-.64-10.66-8.22-11.59-8.94-2.69-2.08-2.7-2.91-2.71-3.25-.03-1.45,2.11-2.67,15.4-16.4,3.67-3.79,16.04-15.81,17.44-17.18,11.92-11.58,14.76-12.26,20.73-12.26,9.14,0,14.12,4.23,20.53,18.89.65,1.48,14.73,32.51,15.56,34.55.5,1.23.75,1.12,6.76,15.24,2.02,4.76,6.62,13.57,9.63,20.79.43,1.02.73.87,5.69,12.58.59,1.4,3.63,6.97,3.95,7.57,2.87,5.27,11.02,13.32,16.4,16.51,5.95,3.52,5.92,3.56,6.45,3.84,2.11,1.11,2.26.97,2.55,1.59.88,1.9.1,1.92-.7,3.87-1.7,4.16-1.8,5.65-8.51,4.72-11.76-1.63-20.9,2.58-22.88-.88-2.82-4.93,5.62-20.3-10.58-31.85-2.76-1.97-3.08-4.97-7.77-10.21-4.01-4.48-3.36-4.97-9.02-11.51-4.62-5.34-9.71-11.58-10.54-12.6-5.5-6.74-9.02-12.8-12.81-20.68-2.19-4.54-4.95-16.07-5.22-16.55-.13-.23-1.32-2.37-3.3-.29-1.07,1.12-2.37,6.92-9.28,16.45-2.59,3.57-3.84,6.69-6.33,10.33-3.71,6.12-4.36,7.57-7.6,5.39Zm83.48,77.35c.51-.05.5.04,6.37-.04,28.8.35,28.76.77,51.3.74.26,0,2.89,0,3.03,1.18.16,1.46-.1,1.6-1.55,1.91-2.79.6-41.93-.4-55.35.21-.3.01-3.36.15-3.77.07-3.49-.66-3.1-3.79-.03-4.08Zm57.66-513.06c-49.32.28-97.05-.08-191.05-.01-13.95,0-172.07.12-174.41.1-4.96-.05-4.53-1.57-4.68-4.34.18-2.6.14-2.59.2-2.81.52-1.95,2.02-2.05,9.61-1.97,37.74.41,37.72.21,70.53.19,6.05,0,69.86-.05,75.66.12,6.84.2,59.09-.12,85.92-.16,119.17-.18,119.15-.39,129.51-.36,4.34.01,6.1-.65,6.01,3.7-.17,7.67-3.43,5.52-7.3,5.55Zm-375.48,109.86c-.23,22.23-.22,42.26-.22,97.46,0,16.93,0,207.98-.04,211.59-.33,27.6.25,87.71-.22,94.87-.23,3.52-3.48,3.09-7.45,3.09-2.31,0-3.64-.18-3.96-3.05-.27-2.44-.32-56.47-.21-61.57.38-18.14.07-32.74.11-48.72.15-57.71-.07-57.7-.18-115.41.01-114.58.03-121.52.06-132.08q.23-79.54,0-159.02c-.02-4.28-.49-6.49,2.88-6.22,2.58.2,2.55.16,5.15.07,4.89-.16,4.42,3.16,4.32,10.02-.45,29.79-.25,108.81-.25,108.99Zm260.87,425.65c-4.48,24.51,1.77,28.3-4.63,29.57-.62.12-27.06,2.35-55.19-2.28-6.35-1.05-6.3-1.22-12.68-2.18-5.04-.77-8.77-2.21-19.35-2.93-10.21-.7-11.59-1.2-23.07-.32-3.83.3-3.82.11-7.64.51-11.22,1.17-11.24.9-21.77,2.61-6.52,1.06-8.28,1.24-9.01,1.32-4.51.44-4.46.7-8.96,1.27-3.88.49-3.88.32-7.75.87-1.76.25-15.49.51-21.83,0-21.05-1.72-21.02-3.66-32.04-5.29-3.34-.5-17.59-1.39-21.86-.21-7.01,1.93-7.49,3.24-9.12,5.21-3.19,3.85-2.62,5.74-6.25,6.1-2.7.27-21.82-.06-26.89.42-2.6.25-2.65.86-5.07-.07-2.83-1.09-1.33-2.23-1.66-17.81-.08-3.97-.07-14.05-.04-14.19.51-2.65,3.24-1.67,8.06-1.62,4.51.05,24.77.04,26.92.04.23,0,2.34,0,2.77-.74.3-.53,1.76-4.04-2.76-4.16-8.77-.23-24.78-.02-26.93,0-6.67.09-7.85.04-8.08-2.4-.09-.99.06-3.58.07-3.89.22-3.81,2.42-3.02,13.14-3.09,20.54-.12,20.49,1.02,41.04,1.01,17.86,0,17.85.11,20.51.16,3.9.08,3.89-.15,48.73-.02,29.5.08,29.49-.2,32.06-.19,14.04.05,14.07-.14,15.25.17.38.1,5.65,2.05,8.51,5.09.82.87,3.98,6.77,13.5,5.02,6.65-1.22,7.1-8.57,8.91-9.44,2.62-1.27,2.78.12,26.92,1.46,2.5.14,17.41,1.49,30.79,1.52,9.57.02,11.76-1.43,12.61-2,.11-.07,1.39-2.15,9.19-2.25.92-.01.9.21,11.54.16.28,0,3.09-.02,3.54.33,1.02.78.27,2.66-1.48,12.23Zm66.07,143.33c-6.85-3.66-16.61-8.05-18.07-8.71q-1.34-.6-16.62-7.79c-1.54-.72-1.44-.87-19.1-9.2-2.79-1.53-2.76-1.57-3.01-1.68-1.08-.51-1.13-.32-2.23-.8-1.6-.69-2.17-.58-1.93-2.32.01-.1,1.56-3.18,5.47-.87,10.62,6.28,11.14,5.42,15.89,8.15,9.22,5.32,10.61,5.09,14.68,7.52,3.99,2.39,5.87,2.64,7.88,3.68,11.71,6.11,11.81,5.85,12.82,6.4,6.68,3.59,8.61,3.91,8.91,4.84.12.36.57,3.54-4.66.75Zm-50.12-61.17c.11-.89,1.3-10.56,1.83-11.04.1-.09,1.41-.07,1.54.03,1.74,1.38-1.11,21.26-3.44,21.58-2.03.28-.81-4.31.07-10.58Zm40.73,38.06c2.7-1.44,3.57-1.92,8.07,2.85,3.78,4.01,3.62,4.23,6.64,8.74.17.26,1.7,2.13.66,3.84-1.59,2.61-5.98-.12-6.44-.37-7.11-3.9-11.42-5.76-13.73-7.1-.25-.14-2.57-1.49-.98-3.42.87-1.06,5.3-4.21,5.78-4.55Zm-9.18-124.05c-1.07,8.28-1.11,8.27-1.2,8.99-.11.92-1.21,9.99-1.34,11.55-2.43,29.15-3.23,29.06-4.15,43.68-1.18,18.78-4.48,25.76,1.08,40.89.33.9.92,2.5,6.38,10.17,2.37,3.33,3.68,4.65,3.05,6.39-.23.64-3.56,3.64-4.56,4.18-2.52,1.37-3.77.57-10.18-2.95-7.67-4.22-16.2-8-17.68-9.19-7.81-6.3,4.15-15.93,5.03-28.97.62-9.14-.49-16.28-.62-17.96-.52-6.53-.62-6.49-1.73-12.94-.07-.4-.77-4.63-.82-5-4.34-31.44-5.74-35.78-1.26-59.08.77-4,4.61-11.04-.95-11.94-.24-.04-16.14.04-21.88.27-10.67.43-16.28,2.03-16.85-1.06-.11-.61,1.06-11.87,1.17-12.9.69-6.56.84-6.53,1.73-19.2.11-1.64.14-4.1,2.46-4.66.78-.19,17.81,2.42,19.16,2.53,2.57.21,24.49,1.99,32.12,3.26,1.06.18,5.71,1.77,6.61,2.29,6.67,3.81,8.67,9.26,7.3,24.78-.08.92-.75,8.48-1.13,11.55-.95,7.66-.74,7.67-1.73,15.32Zm72.41,3.78c1.5,1.62,7.58,1.58,24.22,1.23,15.8-.33,16.5-.51,17.37,1.64.36.89.24,25.89.18,28.02,0,.2-.05,1.69-1.04,2.33-1.98,1.28-31.5.25-43.44.35-14.58.12-14.47-1.11-43.69-5.96-3.16-.4-3.14-.41-6.27-.89-11.03-1.7-16.54-1.04-17.53-2.57-1.07-1.66,1.06-13.67,1.58-18.94.11-1.13,1.3-13.29,1.4-14.1.56-4.73,4.47-3.6,9.36-3.56,14.57.13,22.49-.1,26.93-.1,30.7.02,30.69-.82,33.35-.72,14.23.49,14.76.12,28.21.35,7.89.13,11.87-1.45,11.73,4.08-.08,3.36-.61,4.01-.93,4.35-1.16,1.24-4.11.73-5.67.66-8.21-.36-32.6-.19-33.37-.11-4.31.4-2.91,3.4-2.4,3.95Z" fill="#021140" fill-rule="evenodd"/><path d="m323.39,496.68l.74-.43s.08-.05.12-.08c-.3.13-.59.28-.88.45l.03.05Z" fill="#021140" fill-rule="evenodd"/><path d="m332.05,489.73l.74-.43s.08-.05.12-.08c-.3.13-.6.28-.89.45l.03.05Z" fill="#021140" fill-rule="evenodd"/></svg>